<?xml version="1.0" standalone="no"?>
<!DOCTYPE svg PUBLIC "-//W3C//DTD SVG 20010904//EN"
 "http://www.w3.org/TR/2001/REC-SVG-20010904/DTD/svg10.dtd">
<svg version="1.0" xmlns="http://www.w3.org/2000/svg"
 width="700.000000pt" height="700.000000pt" viewBox="0 0 700.000000 700.000000"
 preserveAspectRatio="xMidYMid meet">
<metadata>
Created by potrace 1.14, written by Peter Selinger 2001-2017
</metadata>
<g transform="translate(0.000000,700.000000) scale(0.100000,-0.100000)"
fill="#000000" stroke="none">
<path d="M3441 5888 c-22 -11 -46 -30 -55 -42 -8 -13 -21 -29 -28 -37 -11 -12
-79 -92 -296 -354 -10 -11 -37 -45 -62 -75 -25 -30 -48 -57 -51 -60 -3 -3 -87
-104 -188 -225 -100 -121 -190 -229 -199 -240 -9 -11 -64 -76 -121 -145 -57
-69 -109 -131 -115 -137 -9 -10 -65 0 -261 48 -138 33 -259 62 -270 64 -11 3
-103 25 -205 50 -102 26 -196 48 -210 51 -14 3 -61 14 -105 25 -44 12 -87 22
-95 24 -8 2 -55 13 -105 25 -49 12 -97 23 -105 25 -65 15 -521 126 -545 134
-16 5 -48 13 -70 17 -50 9 -47 8 -125 29 -81 21 -119 21 -158 1 -65 -34 -88
-117 -52 -186 7 -14 281 -425 608 -915 327 -490 596 -895 599 -901 6 -16 -80
-44 -158 -51 -109 -9 -214 29 -329 122 -91 72 -138 101 -234 139 -107 43 -210
67 -316 72 -72 3 -91 0 -118 -16 -50 -31 -74 -76 -67 -129 10 -83 54 -119 151
-126 171 -12 284 -52 394 -140 133 -107 275 -177 388 -191 217 -28 402 27 580
173 146 120 211 151 338 157 106 6 206 -35 325 -131 187 -151 322 -205 515
-206 161 0 316 62 473 188 166 135 272 169 428 140 62 -11 141 -54 221 -119
140 -114 230 -162 359 -192 62 -14 180 -19 243 -11 132 19 263 80 392 184 140
114 236 153 360 147 106 -5 180 -40 313 -148 308 -251 648 -253 959 -6 84 67
124 89 216 118 80 25 110 31 181 36 66 5 109 25 133 61 38 59 29 129 -24 180
-27 26 -38 29 -97 31 -187 4 -412 -77 -573 -207 -166 -133 -323 -164 -477 -93
l-33 15 27 42 c14 23 284 427 598 897 315 470 580 870 589 889 45 86 -21 193
-118 193 -17 0 -125 -24 -241 -52 -242 -59 -413 -100 -435 -105 -13 -3 -452
-111 -655 -161 -33 -8 -69 -16 -80 -18 -11 -2 -40 -9 -65 -16 -25 -7 -53 -14
-63 -16 -10 -2 -27 -6 -37 -9 -10 -3 -27 -7 -37 -9 -10 -2 -74 -18 -143 -35
-412 -100 -423 -102 -436 -89 -6 7 -251 301 -544 653 -293 352 -545 648 -560
658 -40 25 -85 27 -129 5z m174 -473 c59 -71 122 -146 139 -166 17 -19 42 -49
55 -65 13 -16 30 -37 39 -46 15 -18 6 -32 -85 -138 -37 -43 -146 -174 -188
-225 -22 -27 -112 -135 -199 -239 -181 -217 -149 -200 -311 -159 -55 14 -104
26 -110 27 -94 17 -335 83 -335 92 0 7 3 14 8 16 4 2 95 109 202 238 107 129
197 237 200 240 3 3 71 84 150 180 80 96 149 180 155 186 5 6 44 52 85 102 41
50 78 90 82 89 3 -1 54 -60 113 -132z m-3080 -705 c28 -7 57 -13 65 -15 72
-19 259 -64 285 -69 11 -3 65 -16 120 -30 55 -14 186 -46 290 -71 105 -25 207
-50 227 -56 36 -9 52 -32 315 -427 153 -229 281 -419 284 -422 3 -3 8 -10 10
-15 2 -6 81 -125 175 -265 94 -140 174 -261 179 -269 12 -21 -46 16 -108 67
-185 154 -336 213 -531 207 -133 -4 -243 -36 -350 -103 -21 -13 -42 -20 -46
-15 -8 9 -536 799 -560 838 -8 13 -66 100 -127 192 -62 92 -117 175 -123 183
-5 8 -43 65 -83 125 -122 183 -114 169 -92 162 11 -4 43 -11 70 -17z"/>
<path d="M72 2511 c-51 -32 -74 -78 -67 -130 10 -83 55 -120 154 -126 53 -3
88 -8 139 -20 12 -3 31 -7 42 -9 46 -11 148 -62 190 -96 85 -69 155 -116 211
-142 269 -126 536 -86 788 117 103 84 161 116 242 137 128 34 297 -13 398
-109 44 -42 145 -111 207 -142 267 -132 558 -87 804 123 116 99 230 145 344
139 111 -5 192 -43 321 -148 228 -186 472 -235 725 -143 80 29 151 72 249 151
150 122 271 161 411 134 72 -14 177 -72 250 -138 122 -111 303 -186 460 -191
191 -7 356 55 525 198 59 49 106 74 195 102 63 20 90 25 195 38 99 12 151 68
140 153 -10 82 -66 121 -170 116 -181 -7 -398 -85 -520 -187 -117 -97 -197
-135 -306 -145 -126 -11 -219 26 -371 148 -103 82 -203 137 -303 165 -80 22
-239 26 -318 8 -123 -28 -254 -95 -347 -179 -145 -129 -297 -172 -447 -127
-70 22 -159 74 -223 131 -140 126 -324 194 -505 187 -165 -6 -309 -63 -452
-179 -115 -93 -138 -107 -211 -133 -53 -18 -85 -22 -152 -20 -108 3 -189 38
-303 131 -165 136 -304 195 -467 201 -197 6 -341 -46 -518 -188 -53 -43 -119
-89 -147 -102 -95 -47 -196 -58 -296 -31 -70 18 -113 42 -211 120 -88 70 -188
122 -303 158 -91 28 -127 35 -240 43 -70 5 -84 3 -113 -15z"/>
<path d="M80 1693 c-52 -27 -83 -78 -77 -130 9 -85 56 -121 165 -129 153 -11
292 -64 398 -151 108 -90 194 -134 322 -166 84 -22 197 -27 262 -13 173 37
265 82 390 190 112 97 214 139 335 138 116 0 184 -33 369 -176 251 -197 564
-212 830 -42 52 33 65 44 140 108 79 69 213 117 312 112 60 -3 161 -35 213
-68 21 -14 67 -49 102 -78 153 -130 318 -193 494 -190 182 3 311 55 483 194
134 108 211 140 332 141 111 0 229 -53 340 -153 69 -62 230 -147 310 -164 14
-3 36 -8 50 -11 34 -8 188 -9 225 -1 61 12 71 15 120 31 93 32 179 83 264 157
85 74 231 127 385 142 52 5 78 13 103 32 66 50 67 148 3 209 -28 27 -37 30
-98 30 -192 0 -421 -81 -562 -198 -85 -70 -141 -102 -215 -122 -151 -40 -286
0 -438 130 -160 135 -320 195 -505 190 -119 -4 -136 -7 -252 -53 -73 -28 -156
-81 -246 -157 -101 -86 -211 -128 -323 -124 -105 4 -188 40 -296 128 -150 122
-230 164 -380 197 -55 12 -211 13 -260 1 -137 -33 -278 -107 -370 -194 -37
-35 -112 -82 -166 -105 -43 -17 -74 -22 -154 -22 -90 -1 -106 2 -165 29 -36
16 -101 59 -144 94 -200 160 -339 214 -536 206 -173 -6 -334 -75 -480 -205
-158 -140 -364 -168 -530 -70 -27 16 -79 53 -114 82 -133 110 -323 180 -526
194 -60 4 -82 1 -110 -13z"/>
</g>
</svg>
