<?xml version="1.0" encoding="iso-8859-1"?>
<!-- Generator: Adobe Illustrator 19.0.0, SVG Export Plug-In . SVG Version: 6.00 Build 0)  -->
<svg version="1.1" id="Capa_1" xmlns="http://www.w3.org/2000/svg" xmlns:xlink="http://www.w3.org/1999/xlink" x="0px" y="0px"
	 viewBox="0 0 512.003 512.003" style="enable-background:new 0 0 512.003 512.003;" xml:space="preserve">
<g>
	<polygon style="fill:#3CBBC9;" points="338.841,189.798 338.761,189.448 289.001,129.737 214.738,218.852 221.901,223.858 
		300.101,221.858 	"/>
	<path style="fill:#3CBBC9;" d="M285.101,202.858c-19.1,4.78-39.1,4.78-58.2,0l-53.74-13.06l-67.424-16.389l85.504,128.106
		c12.168,1.625,24.65-2.391,35.26-12.067c18.17-16.57,41.83-16.57,60,0s41.83,16.57,60,0c7.74-7.07,16.48-11.12,25.37-12.16
		c11.97-1.4,24.2,2.65,34.63,12.16c0.52,0.47,1.04,0.93,1.57,1.38l93.93-140.69C483.348,154.671,288.656,201.994,285.101,202.858z"
		/>
</g>
<path d="M416.001,220.138c5.52,0,10-4.48,10-10s-4.48-10-10-10s-10,4.48-10,10S410.481,220.138,416.001,220.138z"/>
<path d="M502.004,327.028c-0.043,0-0.086,0-0.129,0.001c-12.515,0.158-31.03,4.928-42.112,15.03
	c-14.348,13.084-32.176,13.084-46.523,0c-21.975-20.04-51.502-20.04-73.477,0c-14.348,13.084-32.176,13.084-46.523,0
	c-21.975-20.04-51.502-20.04-73.477,0c-14.348,13.084-32.176,13.084-46.523,0c-21.975-20.04-51.502-20.04-73.477,0
	c-14.35,13.084-32.177,13.084-46.522,0c-10.888-9.932-29.569-15.035-42.716-15.035c-0.22,0-0.439,0.001-0.655,0.004
	c-5.522,0.073-9.94,4.608-9.867,10.131c0.072,5.522,4.594,9.936,10.131,9.867c8.945-0.148,22.82,3.598,29.63,9.81
	c21.975,20.04,51.502,20.04,73.477,0c14.348-13.084,32.176-13.084,46.523,0c21.975,20.04,51.502,20.04,73.477,0
	c14.348-13.084,32.176-13.084,46.523,0c21.975,20.04,51.502,20.04,73.477,0c14.348-13.084,32.176-13.084,46.523,0
	c21.97,20.036,51.498,20.043,73.476,0.001c6.49-5.917,20.049-9.699,28.889-9.811c5.522-0.069,9.943-4.603,9.873-10.125
	C511.931,331.422,507.468,327.028,502.004,327.028z"/>
<path d="M502.004,387.028c-0.043,0-0.086,0-0.129,0.001c-12.515,0.158-31.03,4.928-42.112,15.03
	c-14.348,13.084-32.176,13.084-46.523,0c-21.975-20.04-51.502-20.04-73.477,0c-14.348,13.084-32.176,13.084-46.523,0
	c-21.975-20.04-51.502-20.04-73.477,0c-14.348,13.084-32.176,13.084-46.523,0c-21.975-20.04-51.502-20.04-73.477,0
	c-14.35,13.085-32.177,13.083-46.522,0c-10.888-9.932-29.569-15.035-42.716-15.035c-0.22,0-0.439,0.001-0.655,0.004
	c-5.522,0.073-9.94,4.608-9.867,10.131c0.072,5.522,4.594,9.902,10.131,9.867c8.945-0.129,22.82,3.598,29.63,9.81
	c21.975,20.04,51.502,20.04,73.477,0c14.348-13.084,32.176-13.084,46.523,0c21.975,20.04,51.502,20.04,73.477,0
	c14.348-13.084,32.176-13.084,46.523,0c21.975,20.04,51.502,20.04,73.477,0c14.348-13.084,32.176-13.084,46.523,0
	c21.97,20.036,51.498,20.043,73.476,0.001c6.49-5.917,20.049-9.699,28.889-9.811c5.522-0.069,9.943-4.603,9.873-10.125
	C511.931,391.422,507.468,387.028,502.004,387.028z"/>
<path d="M510.195,144.407c-2.361-3.376-6.552-4.958-10.557-3.986l-156.93,38.144l-79.025-94.829c-1.9-2.28-4.715-3.598-7.683-3.598
	c-2.968,0-5.782,1.318-7.683,3.598l-79.025,94.828L12.362,140.42c-4.01-0.974-8.195,0.61-10.557,3.986
	c-2.361,3.376-2.411,7.856-0.123,11.283l88.664,132.842c-12.261,5.96-25.88,3.765-37.107-6.471
	c-10.888-9.932-29.569-15.035-42.716-15.035c-0.22,0-0.439,0.001-0.655,0.004c-5.522,0.073-9.94,4.608-9.867,10.131
	c0.072,5.523,4.594,9.91,10.131,9.867c8.945-0.136,22.82,3.598,29.631,9.811c22.537,20.546,51.959,19.74,73.476-0.001
	c14.348-13.084,32.176-13.084,46.523,0c21.975,20.04,51.502,20.04,73.477,0c14.348-13.084,32.176-13.084,46.523,0
	c21.975,20.04,51.502,20.039,73.482-0.005c13.911-12.706,31.728-13.48,46.549,0.034c22.844,20.645,52.116,19.428,73.444-0.027
	c6.49-5.917,20.049-9.699,28.889-9.811c5.522-0.069,9.943-4.603,9.873-10.125c-0.069-5.48-4.532-9.874-9.996-9.874
	c-0.043,0-0.086,0-0.129,0.001c-12.515,0.158-31.03,4.928-42.113,15.031c-11.496,10.487-25.421,12.542-37.879,6.09l88.435-132.459
	C512.605,152.263,512.558,147.784,510.195,144.407z M256.001,105.758l65.058,78.069l-38.386,9.33
	c-17.448,4.366-35.894,4.367-53.41-0.017l-38.32-9.314L256.001,105.758z M405.796,276.226c-5.285-3.53-10.923-6.066-16.739-7.574
	l12.693-20.316c2.927-4.684,1.502-10.853-3.182-13.78c-4.685-2.925-10.854-1.501-13.779,3.182l-19.032,30.461
	c-9.346,2.059-18.251,6.786-25.995,13.859c-14.348,13.084-32.176,13.084-46.523,0c-21.975-20.04-51.502-20.04-73.477,0
	c-14.348,13.084-32.176,13.084-46.523,0c-19.793-18.051-45.713-19.833-66.738-5.352L32.551,165.91l191.923,46.648
	c20.627,5.162,42.432,5.161,62.988,0.017l191.984-46.664L405.796,276.226z"/>
<g>
</g>
<g>
</g>
<g>
</g>
<g>
</g>
<g>
</g>
<g>
</g>
<g>
</g>
<g>
</g>
<g>
</g>
<g>
</g>
<g>
</g>
<g>
</g>
<g>
</g>
<g>
</g>
<g>
</g>
</svg>
